Coordinates
version=1
nRows=13
nColumns=36
inDegrees=yes

Units are S.I. units (second, meters, Newtons, ...)
If the header above contains a line with 'inDegrees', this indicates whether rotational values are in degrees (yes) or radians (no).

endheader
time	pelvis_tilt	pelvis_list	pelvis_rotation	pelvis_tx	pelvis_ty	pelvis_tz	hip_flexion_r	hip_adduction_r	hip_rotation_r	knee_angle_r	knee_angle_r_beta	ankle_angle_r	subtalar_angle_r	mtp_angle_r	hip_flexion_l	hip_adduction_l	hip_rotation_l	knee_angle_l	knee_angle_l_beta	ankle_angle_l	subtalar_angle_l	mtp_angle_l	lumbar_extension	lumbar_bending	lumbar_rotation	arm_flex_r	arm_add_r	arm_rot_r	elbow_flex_r	pro_sup_r	arm_flex_l	arm_add_l	arm_rot_l	elbow_flex_l	pro_sup_l
      1.80000000	    -18.93502446	     -5.70915140	      5.12425064	     -0.34161909	      0.70955997	     -0.54884463	     73.69161555	      2.19158546	     -0.67265210	     84.66205683	      1.47763164	     23.90221561	    -25.30815526	     -7.38149642	     74.18144966	     -7.13038400	     13.64892895	     85.54623225	      1.49306342	     30.73578379	     -2.30832372	     -7.38149642	    -28.62674828	      4.79264032	     -4.76518321	     49.78631732	    -42.21935278	     13.90152210	     94.09625972	    107.54245043	     39.08325457	    -46.73938656	     14.23305480	    116.15933181	    104.46067152
      1.81000000	    -18.85288660	     -5.60120812	      5.11179881	     -0.33573003	      0.71965301	     -0.54797340	     71.98852656	      2.30996077	     -0.65577030	     82.83697009	      1.44577787	     23.57034443	    -25.31648389	     -7.38417321	     72.50368546	     -7.73910883	     12.90531464	     83.62872323	      1.45959657	     30.57034995	     -1.90785362	     -7.38417321	    -27.67124187	      4.69549240	     -4.77302656	     45.23444996	    -42.34989764	     11.06749111	     96.82382090	    107.24187691	     32.30053007	    -46.64791680	     10.64345431	    114.66134189	    104.37226110
      1.82000000	    -18.50610830	     -5.30218520	      5.00699736	     -0.32940931	      0.73053063	     -0.54718703	     69.97007512	      2.33182071	     -0.59646488	     80.97266493	      1.41323961	     23.23726795	    -25.24997611	     -7.38615614	     70.26199938	     -8.19164664	     12.13072300	     81.53505391	      1.42305515	     30.45348023	     -1.79111800	     -7.38615614	    -26.90871025	      4.41328281	     -4.70127600	     40.78458767	    -42.82700708	      8.39450819	     99.60113175	    106.98068255	     25.62656466	    -46.07296237	      6.79417737	    112.31901730	    104.15412248
      1.83000000	    -18.10094544	     -4.92150432	      4.83706507	     -0.32278823	      0.74183555	     -0.54653495	     67.83648234	      2.35012304	     -0.37474281	     79.03810405	      1.37947515	     22.83794028	    -25.09919638	     -7.38827902	     67.73494187	     -8.31314392	     11.60428010	     79.28487308	      1.38378208	     30.24339451	     -2.13726665	     -7.38827902	    -26.19493767	      4.10314117	     -4.81635530	     36.45530753	    -43.20834264	      5.32857529	    102.79485719	    106.68682520	     18.53894353	    -45.56207048	      2.46316969	    109.81658541	    103.95342510
      1.84000000	    -17.58750082	     -4.46702030	      4.66734861	     -0.31599581	      0.75359048	     -0.54628363	     65.53294577	      2.19462416	     -0.17913642	     76.99076193	      1.34374229	     22.40476890	    -24.83846066	     -7.39059555	     65.02989338	     -8.38737101	     10.91129823	     76.89237376	      1.34202509	     29.80209788	     -2.66794663	     -7.39059555	    -25.51029863	      3.81847742	     -5.14819131	     32.64742898	    -43.75112376	      2.18171509	    106.29209941	    106.43086180	     11.35294890	    -44.99910010	     -2.06191542	    106.88990471	    103.73084763
      1.85000000	    -16.99136340	     -3.92612243	      4.42186640	     -0.30899575	      0.76564307	     -0.54648650	     63.13575503	      1.90919531	      0.03984613	     74.92518911	      1.30769124	     21.93107030	    -24.42967542	     -7.39372507	     62.22237595	     -8.40846617	     10.09684716	     74.50612560	      1.30037720	     29.11100991	     -3.25600384	     -7.39372507	    -24.85544498	      3.49273886	     -5.69112873	     29.37824030	    -44.49822948	     -1.26239643	    109.97959623	    106.14094138	      3.76928276	    -44.14676370	     -7.10547624	    103.69096262	    103.49181268
      1.86000000	    -16.42795745	     -3.39041247	      4.02277877	     -0.30181592	      0.77804738	     -0.54660500	     60.70007318	      1.66627238	      0.25075324	     72.64088199	      1.26782256	     21.41246098	    -23.84121161	     -7.39672604	     59.36620726	     -8.52507629	      9.17608243	     71.95141652	      1.25578912	     28.35887645	     -3.73093323	     -7.39672604	    -24.00627373	      3.15317389	     -6.18031384	     26.68669732	    -45.59018573	     -4.92316589	    113.82355307	    105.88965123	     -3.52899993	    -42.96191098	    -12.08015915	    100.07856625	    102.99356807
      1.87000000	    -15.96340759	     -2.86932658	      3.46278452	     -0.29463047	      0.79061294	     -0.54639667	     58.33228752	      1.50846418	      0.48797807	     70.19694735	      1.22516786	     20.80443214	    -23.15196451	     -7.40809444	     56.54344144	     -8.65933762	      8.27205291	     69.23400349	      1.20836132	     27.12431498	     -4.76668293	     -7.40809444	    -22.94398842	      2.74176961	     -7.26798943	     25.83907986	    -46.67000320	     -7.60473505	    117.17348704	    104.80371356	    -11.92972492	    -41.49601300	    -18.12603761	     97.17752363	    101.90065253
      1.88000000	    -15.47638097	     -2.45538559	      2.72381395	     -0.28731566	      0.80379481	     -0.54564565	     55.84544835	      1.55994542	      0.68624952	     67.47130964	      1.17759650	     19.97351820	    -22.49123197	     -7.40988707	     53.59384115	     -9.03698534	      7.28487812	     66.31029254	      1.15733293	     26.33709043	     -4.78968375	     -7.40988707	    -21.87417685	      2.27216349	     -7.43007903	     24.10495797	    -48.60361791	    -12.54614146	    120.95854494	    104.71187822	    -18.98797866	    -40.08464829	    -22.56617847	     94.49116456	    101.19700331
      1.89000000	    -15.02855489	     -1.91173737	      1.81833171	     -0.27990569	      0.81759785	     -0.54454308	     53.32829931	      1.59605845	      1.06625016	     64.51319206	      1.12596761	     18.92274113	    -21.83768242	     -7.41192286	     50.47908112	     -9.36707283	      6.02385994	     63.04558675	      1.10035307	     25.08094510	     -5.23812936	     -7.41192286	    -20.79926111	      1.50695867	     -7.66264204	     23.09919501	    -50.68889465	    -17.90727899	    124.33516981	    104.49365431	    -26.79317436	    -38.60801138	    -27.13227470	     93.45124300	    100.65202215
      1.90000000	    -14.63009382	     -1.30697551	      0.83481372	     -0.27241083	      0.83179945	     -0.54350514	     50.80001843	      1.57446023	      1.57854659	     61.37037936	      1.07111518	     17.69463779	    -21.09321881	     -7.41439727	     47.27140220	     -9.54735114	      4.72191437	     59.51869945	      1.03879727	     23.42478395	     -5.76322061	     -7.41439727	    -19.62925885	      0.64542114	     -7.93368540	     22.88900281	    -53.19071910	    -23.30509521	    127.08888185	    104.00458320	    -34.93121165	    -36.83379137	    -31.23471998	     93.91028616	    100.43156247
      1.91000000	    -14.35653397	     -0.69524844	     -0.12970785	     -0.26499875	      0.84618804	     -0.54263302	     48.33077643	      1.38996528	      1.97362914	     57.99844353	      1.01226380	     16.32581061	    -20.20935533	     -7.41698166	     44.13491699	     -9.55308721	      3.49379221	     55.74161545	      0.97287472	     21.40445736	     -6.23943033	     -7.41698166	    -18.23629684	     -0.23908665	     -8.13069647	     23.04430629	    -56.21778692	    -28.75071825	    129.07646867	    103.29192331	    -43.07980795	    -34.90758769	    -34.37743344	     95.62953435	    100.77605195
      1.92000000	    -14.21558948	     -0.07808796	     -1.11134478	     -0.25755177	      0.86106292	     -0.54159219	     45.88121007	      1.15266336	      2.34209914	     54.29280644	      0.94758823	     14.62656827	    -19.23752243	     -7.43074283	     41.02559771	     -9.46286819	      2.26347217	     51.58174872	      0.90027135	     18.58047107	     -7.11407545	     -7.43074283	    -16.67277933	     -1.13263502	     -6.79310966	     18.86099724	    -60.47977096	    -38.79084791	    131.47761745	    100.03964018	    -49.58517543	    -34.28174178	    -35.05721356	     97.36113637	    104.07214650
